<svg xmlns="http://www.w3.org/2000/svg" width="48" height="48" viewBox="0 0 48 48" fill="none">
  <defs>
    <linearGradient id="wc_bg" x1="6" y1="4" x2="42" y2="44" gradientUnits="userSpaceOnUse">
      <stop stop-color="#7a6cf5"/>
      <stop offset="1" stop-color="#463aa8"/>
    </linearGradient>
  </defs>
  <rect width="48" height="48" rx="12" fill="url(#wc_bg)"/>
  <rect x="17" y="10.5" width="17" height="22" rx="3" fill="#ffffff" opacity="0.38" transform="rotate(8 24 21)"/>
  <path d="M15 14a3 3 0 0 1 3-3h9l5 5v16a3 3 0 0 1-3 3H18a3 3 0 0 1-3-3V14z" fill="#ffffff"/>
  <path d="M27 11l5 5h-4a1 1 0 0 1-1-1v-4z" fill="#cfc8fb"/>
  <rect x="18.5" y="20" width="11" height="2" rx="1" fill="#5b4fd0"/>
  <rect x="18.5" y="24" width="11" height="2" rx="1" fill="#b7b1ef"/>
  <rect x="18.5" y="28" width="7" height="2" rx="1" fill="#b7b1ef"/>
</svg>
